<?xml version="1.0" encoding="utf-8"?>
<!-- Generator: Adobe Illustrator 23.0.1, SVG Export Plug-In . SVG Version: 6.00 Build 0)  -->
<svg version="1.1" id="Layer_1" xmlns="http://www.w3.org/2000/svg" xmlns:xlink="http://www.w3.org/1999/xlink" x="0px" y="0px"
	 viewBox="0 0 225.04 29.93" style="enable-background:new 0 0 225.04 29.93;" xml:space="preserve">
<style type="text/css">
	.st0{fill:#231F20;}
</style>
<g>
	<rect x="18.9" y="1.29" class="st0" width="0.92" height="26.86"/>
</g>
<path class="st0" d="M5.09,10.22C5.52,9.6,6.52,7.68,9.44,7.68c2.06,0,3.15,0.82,3.59,1.23c1.26,1.23,1.33,3,1.33,4v8.52H9.08v-7.49
	c0-0.15-0.02-1.9-1.79-1.9c-1.87,0-1.92,1.72-1.92,2.18v7.21H0.09V8.01h5V10.22"/>
<path class="st0" d="M43.24,7.71c-0.99,0-1.79,0.8-1.79,1.79c0,0.99,0.8,1.79,1.79,1.79c0.91,0,1.31-0.65,1.32-0.62
	c0.51,1.56-2.21,9.68-5.92,9.68c-1.2,0-1.58-0.97-1.58-2.23c0-1.49,0.43-3.01,0.98-5.07c0.57-2.03,1.09-3.98,1.38-5.03h-3.58
	c-0.49,1.76-3.99,12.08-6.96,12.08c-0.37,0-0.77-0.4-0.77-1.12c0-0.4,0.34-1.81,0.52-2.32l1.17-4.01c0.26-0.83,0.63-1.92,0.63-2.72
	c0-1.4-0.97-2.21-2.12-2.21c-3.24,0-4.58,2.89-5.25,4.07l0.55,0.35c0.31-0.52,1.75-2.95,2.72-2.95c0.14,0,0.26,0.17,0.26,0.69
	c0,0.34-0.2,1.12-0.4,1.83l-1.23,4.07c-0.2,0.75-0.69,2.18-0.69,3.21c0,1.89,1.43,2.84,2.69,2.84c4.59,0,6.59-5.56,7.25-7.16
	l0.06,0.06c-0.09,0.31-0.49,2.01-0.49,2.87c0,2.46,1.1,4.24,3.51,4.24C44.25,21.81,48.06,7.71,43.24,7.71"/>
<g>
	<path class="st0" d="M60.21,13.19V8.61h-1.74V7.99h4.2v0.61h-1.74v4.59H60.21z"/>
	<path class="st0" d="M63.35,8h0.68v2.11c0.22-0.38,0.67-0.6,1.17-0.6c0.38,0,0.93,0.14,1.14,0.58c0.07,0.14,0.12,0.32,0.12,0.84
		v2.26h-0.69v-2.14c0-0.32,0-1.02-0.78-1.02c-0.5,0-0.76,0.31-0.85,0.48c-0.12,0.2-0.12,0.54-0.12,0.76v1.92h-0.68V8z"/>
	<path class="st0" d="M68.16,11.51c-0.01,0.75,0.3,1.3,1.04,1.3c0.44,0,0.79-0.23,0.85-0.75h0.68c-0.02,0.18-0.05,0.48-0.31,0.76
		c-0.16,0.18-0.52,0.48-1.25,0.48c-1.14,0-1.68-0.71-1.68-1.85c0-0.71,0.14-1.3,0.71-1.7c0.35-0.24,0.78-0.27,0.99-0.27
		c1.62,0,1.58,1.43,1.57,2.02H68.16z M70.07,11.03c0.01-0.35-0.06-1.07-0.89-1.07c-0.44,0-0.97,0.27-0.99,1.07H70.07z"/>
	<path class="st0" d="M73.8,7.99h1.86c0.63,0,0.99,0.06,1.31,0.38c0.22,0.22,0.37,0.52,0.37,0.93c0,0.86-0.63,1.08-0.88,1.17
		c0.3,0.09,1.04,0.3,1.04,1.3c0,0.71-0.45,1.07-0.63,1.18c-0.36,0.24-0.76,0.24-1.17,0.24H73.8V7.99z M74.5,10.19h1.01
		c0.24,0,1.08,0,1.08-0.82c0-0.78-0.66-0.78-1.05-0.78H74.5V10.19z M74.5,12.61h1.23c0.57,0,1.02-0.3,1.02-0.9
		c0-0.52-0.36-0.9-0.99-0.9H74.5V12.61z"/>
	<path class="st0" d="M80.76,13.19c-0.05-0.18-0.06-0.35-0.06-0.54c-0.32,0.6-0.81,0.66-1.12,0.66c-0.83,0-1.27-0.47-1.27-1.07
		c0-0.29,0.1-0.75,0.63-1.06c0.39-0.22,0.97-0.24,1.25-0.24c0.17,0,0.28,0.01,0.49,0.02c0-0.45,0-0.64-0.13-0.8
		c-0.14-0.18-0.43-0.24-0.63-0.24c-0.68,0-0.72,0.47-0.73,0.61h-0.68c0.02-0.19,0.04-0.44,0.25-0.68c0.27-0.3,0.79-0.39,1.17-0.39
		c0.53,0,1.09,0.17,1.28,0.53c0.12,0.22,0.12,0.39,0.12,0.55l-0.03,1.73c0,0.06,0.01,0.54,0.06,0.91H80.76z M80.29,11.41
		c-0.27,0-1.3,0-1.3,0.73c0,0.23,0.14,0.63,0.75,0.63c0.35,0,0.6-0.14,0.77-0.39c0.15-0.24,0.16-0.45,0.17-0.95
		C80.56,11.42,80.46,11.41,80.29,11.41z"/>
	<path class="st0" d="M82.95,12.12c-0.01,0.27,0.14,0.66,0.79,0.66c0.28,0,0.49-0.05,0.63-0.23c0.07-0.09,0.12-0.22,0.12-0.34
		c0-0.35-0.25-0.42-0.79-0.54c-0.76-0.17-1.39-0.32-1.39-1.08c0-0.66,0.58-1.09,1.41-1.09c0.45,0,1.09,0.13,1.3,0.56
		c0.09,0.2,0.09,0.37,0.09,0.53h-0.69c0.02-0.55-0.45-0.59-0.7-0.59c-0.1,0-0.73,0-0.73,0.52c0,0.33,0.32,0.41,0.51,0.46
		c1,0.24,1.22,0.3,1.43,0.5c0.2,0.19,0.27,0.44,0.27,0.67c0,0.4-0.22,0.75-0.49,0.91c-0.32,0.19-0.7,0.24-1.07,0.24
		c-0.73,0-1.42-0.3-1.41-1.17H82.95z"/>
	<path class="st0" d="M86.57,11.51c-0.01,0.75,0.3,1.3,1.04,1.3c0.44,0,0.79-0.23,0.85-0.75h0.68c-0.02,0.18-0.05,0.48-0.31,0.76
		c-0.16,0.18-0.52,0.48-1.25,0.48c-1.14,0-1.68-0.71-1.68-1.85c0-0.71,0.14-1.3,0.71-1.7c0.35-0.24,0.78-0.27,0.99-0.27
		c1.62,0,1.58,1.43,1.57,2.02H86.57z M88.48,11.03c0.01-0.35-0.06-1.07-0.89-1.07c-0.44,0-0.97,0.27-0.99,1.07H88.48z"/>
	<path class="st0" d="M90.18,8h0.68v5.19h-0.68V8z"/>
	<path class="st0" d="M94.69,11.67c0.01,0.36,0.06,1.03,1.25,1.03c1.08,0,1.22-0.67,1.22-0.93c0-0.58-0.47-0.7-1.2-0.88
		c-0.79-0.19-1.15-0.28-1.41-0.46c-0.42-0.29-0.54-0.68-0.54-1.02c0-1.06,1-1.52,1.98-1.52c0.35,0,1.04,0.06,1.46,0.51
		c0.29,0.32,0.3,0.67,0.32,0.89h-0.75c-0.04-0.65-0.58-0.79-1.09-0.79c-0.72,0-1.15,0.32-1.15,0.84c0,0.46,0.3,0.62,0.94,0.77
		c1.24,0.32,1.38,0.35,1.68,0.55c0.48,0.32,0.52,0.82,0.52,1.04c0,0.92-0.72,1.62-2.05,1.62c-0.4,0-1.2-0.06-1.61-0.59
		c-0.3-0.38-0.3-0.8-0.3-1.05H94.69z"/>
	<path class="st0" d="M101.03,10.74c-0.01-0.17-0.06-0.76-0.72-0.76c-0.94,0-0.94,1.09-0.94,1.36c0,0.74,0.18,1.43,0.9,1.43
		c0.58,0,0.77-0.43,0.79-0.78h0.68c-0.04,0.71-0.57,1.3-1.46,1.3c-0.24,0-0.81-0.05-1.19-0.47c-0.22-0.25-0.43-0.63-0.43-1.38
		c0-1.51,0.92-1.95,1.64-1.95c0.24,0,0.78,0.05,1.11,0.45c0.27,0.31,0.29,0.6,0.3,0.81H101.03z"/>
	<path class="st0" d="M102.57,8h0.68v2.11c0.22-0.38,0.67-0.6,1.17-0.6c0.38,0,0.93,0.14,1.14,0.58c0.07,0.14,0.12,0.32,0.12,0.84
		v2.26H105v-2.14c0-0.32,0-1.02-0.78-1.02c-0.5,0-0.76,0.31-0.85,0.48c-0.12,0.2-0.12,0.54-0.12,0.76v1.92h-0.68V8z"/>
	<path class="st0" d="M108.54,9.48c1.45,0,1.77,1.14,1.77,1.89c0,1.06-0.6,1.94-1.83,1.94c-1.2,0-1.78-0.83-1.78-1.89
		C106.71,10.53,107.13,9.48,108.54,9.48z M108.5,12.81c0.51,0,1.09-0.37,1.09-1.45c0-0.9-0.42-1.38-1.05-1.38
		c-0.43,0-1.13,0.27-1.13,1.4C107.41,12.13,107.73,12.81,108.5,12.81z"/>
	<path class="st0" d="M112.94,9.48c1.45,0,1.77,1.14,1.77,1.89c0,1.06-0.6,1.94-1.83,1.94c-1.2,0-1.78-0.83-1.78-1.89
		C111.11,10.53,111.53,9.48,112.94,9.48z M112.9,12.81c0.51,0,1.09-0.37,1.09-1.45c0-0.9-0.42-1.38-1.05-1.38
		c-0.43,0-1.13,0.27-1.13,1.4C111.81,12.13,112.13,12.81,112.9,12.81z"/>
	<path class="st0" d="M115.79,8h0.68v5.19h-0.68V8z"/>
	<path class="st0" d="M121.35,9.48c1.45,0,1.77,1.14,1.77,1.89c0,1.06-0.6,1.94-1.83,1.94c-1.2,0-1.78-0.83-1.78-1.89
		C119.51,10.53,119.93,9.48,121.35,9.48z M121.31,12.81c0.51,0,1.09-0.37,1.09-1.45c0-0.9-0.42-1.38-1.05-1.38
		c-0.43,0-1.13,0.27-1.13,1.4C120.22,12.13,120.54,12.81,121.31,12.81z"/>
	<path class="st0" d="M125.99,8.5c-0.12-0.01-0.26-0.01-0.4-0.01c-0.55,0-0.55,0.27-0.55,0.53v0.57h0.84v0.49h-0.84v3.12h-0.67
		v-3.12h-0.71V9.58h0.71V9.17c0-0.5,0.03-0.68,0.15-0.86c0.15-0.23,0.44-0.4,0.91-0.4c0.19,0,0.41,0.03,0.55,0.05V8.5z"/>
	<path class="st0" d="M130.2,7.99h0.77l2.1,5.2h-0.79l-0.56-1.35h-2.41l-0.56,1.35h-0.74L130.2,7.99z M129.54,11.25h1.97l-0.96-2.55
		L129.54,11.25z"/>
	<path class="st0" d="M133.81,10.31c0-0.24-0.01-0.5-0.04-0.73h0.68l0.01,0.7c0.13-0.5,0.56-0.67,0.86-0.71
		c0.2-0.03,0.35-0.02,0.47-0.01v0.66c-0.04-0.01-0.08-0.02-0.13-0.03c-0.05-0.01-0.12-0.01-0.19-0.01c-0.8,0-0.99,0.48-0.99,1.09
		v1.92h-0.68V10.31z"/>
	<path class="st0" d="M136.03,9.56h0.64V8.81l0.67-0.22v0.97h0.81v0.5h-0.81v2.17c0,0.18,0,0.48,0.48,0.48
		c0.14,0,0.27-0.02,0.32-0.04v0.53c-0.12,0.02-0.32,0.04-0.56,0.04c-0.62,0-0.91-0.18-0.91-0.77v-2.41h-0.64V9.56z"/>
	<path class="st0" d="M143.18,13.19c-0.05-0.18-0.06-0.35-0.06-0.54c-0.32,0.6-0.81,0.66-1.12,0.66c-0.83,0-1.27-0.47-1.27-1.07
		c0-0.29,0.1-0.75,0.63-1.06c0.39-0.22,0.97-0.24,1.25-0.24c0.17,0,0.28,0.01,0.49,0.02c0-0.45,0-0.64-0.13-0.8
		c-0.14-0.18-0.43-0.24-0.63-0.24c-0.68,0-0.72,0.47-0.73,0.61h-0.68c0.02-0.19,0.04-0.44,0.25-0.68c0.27-0.3,0.79-0.39,1.17-0.39
		c0.53,0,1.09,0.17,1.28,0.53c0.12,0.22,0.12,0.39,0.12,0.55l-0.03,1.73c0,0.06,0.01,0.54,0.06,0.91H143.18z M142.72,11.41
		c-0.27,0-1.3,0-1.3,0.73c0,0.23,0.14,0.63,0.75,0.63c0.35,0,0.6-0.14,0.77-0.39c0.15-0.24,0.16-0.45,0.17-0.95
		C142.98,11.42,142.88,11.41,142.72,11.41z"/>
	<path class="st0" d="M145.01,9.99L145,9.58h0.68l0.01,0.58c0.08-0.15,0.34-0.66,1.16-0.66c0.32,0,1.31,0.12,1.31,1.23v2.46h-0.69
		v-2.3c0-0.24-0.03-0.45-0.2-0.62c-0.17-0.17-0.41-0.24-0.64-0.24c-0.49,0-0.94,0.35-0.94,1.08v2.08h-0.68V9.99z"/>
	<path class="st0" d="M151.89,8h0.68v4.62c0,0.08,0.01,0.39,0.03,0.58h-0.68l-0.01-0.58c-0.06,0.1-0.14,0.25-0.32,0.38
		c-0.3,0.2-0.65,0.27-0.89,0.27c-0.48,0-1.56-0.25-1.56-1.84c0-1.38,0.79-1.97,1.64-1.97c0.78,0,1.04,0.46,1.12,0.61V8z
		 M151.64,10.33c-0.14-0.19-0.41-0.37-0.79-0.37c-0.99,0-0.99,1.2-0.99,1.45c0,0.64,0.16,1.38,0.99,1.38c1.07,0,1.07-1.17,1.07-1.45
		C151.91,10.81,151.79,10.52,151.64,10.33z"/>
	<path class="st0" d="M155.79,7.99h1.5c0.7,0,1.52,0,2.09,0.68c0.46,0.54,0.64,1.25,0.64,1.97c0,1.12-0.47,1.81-0.86,2.13
		c-0.51,0.42-1.15,0.42-1.92,0.42h-1.46V7.99z M156.51,12.6h0.71c0.5,0,1.02-0.03,1.36-0.29c0.66-0.5,0.68-1.35,0.68-1.65
		c0-0.19-0.01-1.08-0.5-1.62c-0.33-0.37-0.75-0.45-1.38-0.45h-0.86V12.6z"/>
	<path class="st0" d="M161.4,11.51c-0.01,0.75,0.3,1.3,1.04,1.3c0.44,0,0.79-0.23,0.85-0.75h0.68c-0.02,0.18-0.05,0.48-0.31,0.76
		c-0.16,0.18-0.52,0.48-1.25,0.48c-1.14,0-1.68-0.71-1.68-1.85c0-0.71,0.14-1.3,0.71-1.7c0.35-0.24,0.78-0.27,0.99-0.27
		c1.62,0,1.58,1.43,1.57,2.02H161.4z M163.31,11.03c0.01-0.35-0.06-1.07-0.89-1.07c-0.44,0-0.97,0.27-0.99,1.07H163.31z"/>
	<path class="st0" d="M165.38,12.12c-0.01,0.27,0.14,0.66,0.79,0.66c0.28,0,0.49-0.05,0.63-0.23c0.07-0.09,0.11-0.22,0.11-0.34
		c0-0.35-0.25-0.42-0.79-0.54c-0.76-0.17-1.39-0.32-1.39-1.08c0-0.66,0.58-1.09,1.41-1.09c0.45,0,1.09,0.13,1.3,0.56
		c0.09,0.2,0.09,0.37,0.09,0.53h-0.69c0.02-0.55-0.45-0.59-0.7-0.59c-0.1,0-0.73,0-0.73,0.52c0,0.33,0.32,0.41,0.51,0.46
		c1,0.24,1.22,0.3,1.43,0.5c0.2,0.19,0.27,0.44,0.27,0.67c0,0.4-0.22,0.75-0.49,0.91c-0.32,0.19-0.7,0.24-1.07,0.24
		c-0.73,0-1.42-0.3-1.41-1.17H165.38z"/>
	<path class="st0" d="M168.53,8.01h0.81v0.74h-0.81V8.01z M168.6,9.58h0.68v3.61h-0.68V9.58z"/>
	<path class="st0" d="M171.24,13.47c0.03,0.4,0.2,0.71,0.84,0.71c0.94,0,0.96-0.68,0.96-1.66c-0.29,0.6-0.97,0.61-1.19,0.61
		c-0.33,0-0.81-0.07-1.11-0.45c-0.31-0.37-0.41-0.85-0.41-1.33c0-1.22,0.72-1.82,1.61-1.82c0.73,0,0.99,0.36,1.14,0.55l0.01-0.5
		h0.66l-0.01,0.66l-0.01,2.26c0,0.87-0.03,1.22-0.17,1.5c-0.3,0.58-1.01,0.65-1.5,0.65c-1.45,0-1.49-0.68-1.52-1.17H171.24z
		 M172.82,12.26c0.14-0.19,0.25-0.38,0.25-1.04c0-0.45-0.1-0.71-0.28-0.9c-0.18-0.19-0.47-0.32-0.78-0.32
		c-0.86,0-0.97,0.86-0.97,1.33c0,0.55,0.17,1.29,0.99,1.29C172.42,12.62,172.65,12.48,172.82,12.26z"/>
	<path class="st0" d="M175.01,9.99l-0.01-0.42h0.68l0.01,0.58c0.08-0.15,0.34-0.66,1.16-0.66c0.32,0,1.31,0.12,1.31,1.23v2.46h-0.69
		v-2.3c0-0.24-0.03-0.45-0.19-0.62c-0.17-0.17-0.41-0.24-0.64-0.24c-0.49,0-0.94,0.35-0.94,1.08v2.08h-0.68V9.99z"/>
	<path class="st0" d="M181.4,7.53h0.6v7.2h-0.6V7.53z"/>
	<path class="st0" d="M185.32,7.99h3.1v0.61h-2.36v1.62h2.22v0.6h-2.22v2.36h-0.73V7.99z"/>
	<path class="st0" d="M189.99,7.99v2.23h2.47V7.99h0.72v5.2h-0.72v-2.35h-2.47v2.35h-0.72v-5.2H189.99z"/>
	<path class="st0" d="M194.52,7.99h1l2.56,4.3v-4.3h0.66v5.2h-0.92l-2.64-4.41v4.41h-0.66V7.99z"/>
	<path class="st0" d="M200.27,7.99l1.12,4.28l1.24-4.28h0.89l1.17,4.31l1.18-4.31h0.71l-1.54,5.2h-0.8l-1.2-4.44l-1.29,4.44h-0.78
		l-1.48-5.2H200.27z"/>
	<path class="st0" d="M210,7.99v2.23h2.47V7.99h0.72v5.2h-0.72v-2.35H210v2.35h-0.72v-5.2H210z"/>
	<path class="st0" d="M218,9.29c-0.08-0.48-0.47-0.81-1.17-0.81c-0.49,0-0.9,0.13-1.17,0.44c-0.45,0.5-0.56,1.18-0.56,1.67
		c0,0.44,0.09,1.18,0.48,1.63c0.34,0.39,0.86,0.51,1.38,0.51c0.59,0,0.96-0.12,1.13-0.17v-1.54h-1.19v-0.6h1.91v2.56
		c-0.3,0.1-0.96,0.32-1.85,0.32c-0.96,0-1.52-0.27-1.89-0.65c-0.51-0.52-0.73-1.25-0.73-1.98c0-0.52,0.13-1.74,1.12-2.41
		c0.51-0.35,1.19-0.37,1.45-0.37c0.41,0,1.04,0.05,1.53,0.55c0.31,0.32,0.33,0.63,0.35,0.83H218z"/>
	<path class="st0" d="M220.12,7.99h0.71v2.28L223,7.99h0.99l-2.33,2.33l2.58,2.87h-1.01l-2.4-2.76v2.76h-0.71V7.99z"/>
	<path class="st0" d="M61.06,21.34h-0.79l-1.85-5.2h0.8l1.48,4.44l1.56-4.44h0.73L61.06,21.34z"/>
	<path class="st0" d="M63.69,16.16h0.81v0.74h-0.81V16.16z M63.76,17.73h0.68v3.61h-0.68V17.73z"/>
	<path class="st0" d="M66.14,20.27c-0.01,0.27,0.14,0.66,0.79,0.66c0.28,0,0.49-0.05,0.63-0.23c0.07-0.09,0.12-0.22,0.12-0.34
		c0-0.35-0.25-0.42-0.79-0.54c-0.76-0.17-1.39-0.32-1.39-1.08c0-0.66,0.58-1.09,1.41-1.09c0.45,0,1.09,0.13,1.3,0.56
		c0.09,0.2,0.09,0.37,0.09,0.53h-0.69c0.02-0.55-0.45-0.59-0.7-0.59c-0.1,0-0.73,0-0.73,0.52c0,0.33,0.32,0.41,0.51,0.46
		c1,0.24,1.22,0.3,1.43,0.5c0.2,0.19,0.27,0.44,0.27,0.67c0,0.4-0.22,0.75-0.49,0.92c-0.32,0.19-0.7,0.24-1.07,0.24
		c-0.73,0-1.42-0.3-1.41-1.17H66.14z"/>
	<path class="st0" d="M69.97,17.73v2.33c0,0.35,0.08,0.8,0.77,0.8c0.34,0,0.66-0.11,0.85-0.4c0.15-0.22,0.15-0.5,0.15-0.68v-2.04
		h0.7v2.94c0,0.07,0.01,0.47,0.02,0.68h-0.71l-0.01-0.62c-0.13,0.25-0.37,0.66-1.15,0.66c-0.89,0-1.31-0.51-1.31-1.22v-2.43H69.97z"
		/>
	<path class="st0" d="M75.96,21.34c-0.05-0.18-0.06-0.35-0.06-0.54c-0.32,0.6-0.81,0.66-1.12,0.66c-0.83,0-1.27-0.47-1.27-1.07
		c0-0.29,0.1-0.75,0.63-1.06c0.39-0.22,0.97-0.24,1.25-0.24c0.17,0,0.28,0.01,0.49,0.02c0-0.45,0-0.64-0.13-0.8
		c-0.14-0.18-0.43-0.24-0.63-0.24c-0.68,0-0.72,0.47-0.73,0.61h-0.68c0.02-0.19,0.04-0.44,0.25-0.68c0.27-0.3,0.79-0.39,1.17-0.39
		c0.53,0,1.09,0.17,1.28,0.53c0.12,0.22,0.12,0.39,0.12,0.55l-0.03,1.73c0,0.06,0.01,0.54,0.06,0.91H75.96z M75.49,19.56
		c-0.27,0-1.3,0-1.3,0.73c0,0.23,0.14,0.63,0.75,0.63c0.35,0,0.6-0.14,0.77-0.39c0.15-0.25,0.16-0.45,0.17-0.95
		C75.76,19.57,75.66,19.56,75.49,19.56z"/>
	<path class="st0" d="M77.77,16.15h0.68v5.19h-0.68V16.15z"/>
	<path class="st0" d="M84.89,17.55c-0.03-0.18-0.12-0.9-1.12-0.9c-1.25,0-1.48,1.28-1.48,2.15c0,0.98,0.28,2.04,1.47,2.04
		c0.32,0,0.62-0.08,0.84-0.31c0.19-0.2,0.23-0.42,0.25-0.55h0.79c-0.11,1.02-1.05,1.45-1.94,1.45c-1.83,0-2.18-1.61-2.18-2.62
		c0-1.09,0.42-2.73,2.28-2.73c0.73,0,1.77,0.3,1.86,1.48H84.89z"/>
	<path class="st0" d="M88.14,17.63c1.45,0,1.77,1.14,1.77,1.89c0,1.06-0.6,1.94-1.83,1.94c-1.2,0-1.78-0.83-1.78-1.89
		C86.3,18.68,86.72,17.63,88.14,17.63z M88.09,20.96c0.51,0,1.09-0.37,1.09-1.45c0-0.9-0.42-1.38-1.05-1.38
		c-0.43,0-1.13,0.27-1.13,1.4C87.01,20.28,87.32,20.96,88.09,20.96z"/>
	<path class="st0" d="M90.97,18.21l-0.01-0.48h0.68v0.53c0.35-0.57,0.84-0.62,1.15-0.62c0.8,0,1.05,0.41,1.18,0.68
		c0.12-0.2,0.42-0.68,1.22-0.68c0.52,0,1.32,0.22,1.32,1.28v2.43h-0.68v-2.32c0-0.32-0.06-0.45-0.12-0.55
		c-0.12-0.17-0.35-0.32-0.69-0.32c-0.44,0-0.68,0.25-0.77,0.38c-0.16,0.22-0.16,0.62-0.16,0.78v2.02h-0.68v-2.39
		c0-0.45-0.26-0.79-0.79-0.79c-0.46,0-0.71,0.29-0.79,0.4c-0.15,0.21-0.16,0.5-0.16,0.73v2.05h-0.68V18.21z"/>
	<path class="st0" d="M97.76,18.21l-0.01-0.48h0.68v0.53c0.35-0.57,0.84-0.62,1.15-0.62c0.8,0,1.05,0.41,1.18,0.68
		c0.12-0.2,0.42-0.68,1.22-0.68c0.52,0,1.33,0.22,1.33,1.28v2.43h-0.68v-2.32c0-0.32-0.06-0.45-0.12-0.55
		c-0.11-0.17-0.35-0.32-0.69-0.32c-0.44,0-0.68,0.25-0.77,0.38c-0.16,0.22-0.16,0.62-0.16,0.78v2.02h-0.68v-2.39
		c0-0.45-0.26-0.79-0.79-0.79c-0.46,0-0.71,0.29-0.79,0.4c-0.15,0.21-0.16,0.5-0.16,0.73v2.05h-0.68V18.21z"/>
	<path class="st0" d="M105.18,17.73v2.33c0,0.35,0.08,0.8,0.77,0.8c0.34,0,0.66-0.11,0.85-0.4c0.15-0.22,0.15-0.5,0.15-0.68v-2.04
		h0.7v2.94c0,0.07,0.01,0.47,0.02,0.68h-0.71l-0.01-0.62c-0.13,0.25-0.37,0.66-1.15,0.66c-0.89,0-1.31-0.51-1.31-1.22v-2.43H105.18z
		"/>
	<path class="st0" d="M108.98,18.14l-0.01-0.42h0.68l0.01,0.58c0.08-0.15,0.34-0.66,1.16-0.66c0.32,0,1.31,0.12,1.31,1.23v2.45
		h-0.69v-2.3c0-0.24-0.03-0.45-0.19-0.62c-0.17-0.17-0.41-0.25-0.64-0.25c-0.49,0-0.94,0.35-0.94,1.08v2.08h-0.68V18.14z"/>
	<path class="st0" d="M113.3,16.16h0.81v0.74h-0.81V16.16z M113.37,17.73h0.68v3.61h-0.68V17.73z"/>
	<path class="st0" d="M117.42,18.89c-0.01-0.17-0.06-0.76-0.72-0.76c-0.94,0-0.94,1.09-0.94,1.36c0,0.74,0.18,1.43,0.9,1.43
		c0.58,0,0.77-0.43,0.79-0.78h0.68c-0.04,0.71-0.57,1.3-1.46,1.3c-0.24,0-0.81-0.05-1.19-0.47c-0.22-0.25-0.43-0.63-0.43-1.38
		c0-1.5,0.92-1.95,1.64-1.95c0.24,0,0.78,0.05,1.11,0.45c0.27,0.31,0.29,0.61,0.3,0.81H117.42z"/>
	<path class="st0" d="M121.17,21.34c-0.05-0.18-0.06-0.35-0.06-0.54c-0.32,0.6-0.81,0.66-1.12,0.66c-0.83,0-1.27-0.47-1.27-1.07
		c0-0.29,0.1-0.75,0.63-1.06c0.39-0.22,0.97-0.24,1.25-0.24c0.17,0,0.28,0.01,0.49,0.02c0-0.45,0-0.64-0.13-0.8
		c-0.14-0.18-0.43-0.24-0.63-0.24c-0.68,0-0.72,0.47-0.73,0.61h-0.68c0.02-0.19,0.04-0.44,0.25-0.68c0.27-0.3,0.79-0.39,1.17-0.39
		c0.53,0,1.09,0.17,1.28,0.53c0.12,0.22,0.12,0.39,0.12,0.55l-0.03,1.73c0,0.06,0.01,0.54,0.06,0.91H121.17z M120.7,19.56
		c-0.27,0-1.3,0-1.3,0.73c0,0.23,0.14,0.63,0.75,0.63c0.35,0,0.6-0.14,0.77-0.39c0.15-0.25,0.16-0.45,0.17-0.95
		C120.97,19.57,120.87,19.56,120.7,19.56z"/>
	<path class="st0" d="M122.41,17.71h0.64v-0.76l0.67-0.22v0.97h0.81v0.5h-0.81v2.17c0,0.18,0,0.48,0.48,0.48
		c0.14,0,0.27-0.02,0.32-0.04v0.53c-0.12,0.02-0.32,0.04-0.56,0.04c-0.62,0-0.91-0.18-0.91-0.77v-2.41h-0.64V17.71z"/>
	<path class="st0" d="M125.3,16.16h0.81v0.74h-0.81V16.16z M125.37,17.73h0.68v3.61h-0.68V17.73z"/>
	<path class="st0" d="M128.94,17.63c1.45,0,1.77,1.14,1.77,1.89c0,1.06-0.6,1.94-1.83,1.94c-1.2,0-1.78-0.83-1.78-1.89
		C127.1,18.68,127.52,17.63,128.94,17.63z M128.9,20.96c0.51,0,1.09-0.37,1.09-1.45c0-0.9-0.42-1.38-1.05-1.38
		c-0.43,0-1.13,0.27-1.13,1.4C127.81,20.28,128.13,20.96,128.9,20.96z"/>
	<path class="st0" d="M131.79,18.14l-0.01-0.42h0.68l0.01,0.58c0.08-0.15,0.34-0.66,1.16-0.66c0.32,0,1.31,0.12,1.31,1.23v2.45
		h-0.69v-2.3c0-0.24-0.03-0.45-0.19-0.62c-0.17-0.17-0.41-0.25-0.64-0.25c-0.49,0-0.94,0.35-0.94,1.08v2.08h-0.68V18.14z"/>
	<path class="st0" d="M138.17,16.14h0.72v5.2h-0.72V16.14z"/>
	<path class="st0" d="M140.2,18.14l-0.01-0.42h0.68l0.01,0.58c0.08-0.15,0.34-0.66,1.16-0.66c0.32,0,1.31,0.12,1.31,1.23v2.45h-0.69
		v-2.3c0-0.24-0.03-0.45-0.19-0.62c-0.17-0.17-0.41-0.25-0.64-0.25c-0.49,0-0.94,0.35-0.94,1.08v2.08h-0.68V18.14z"/>
	<path class="st0" d="M144.96,20.27c-0.01,0.27,0.14,0.66,0.79,0.66c0.28,0,0.49-0.05,0.63-0.23c0.07-0.09,0.11-0.22,0.11-0.34
		c0-0.35-0.25-0.42-0.79-0.54c-0.76-0.17-1.39-0.32-1.39-1.08c0-0.66,0.58-1.09,1.41-1.09c0.45,0,1.09,0.13,1.3,0.56
		c0.09,0.2,0.09,0.37,0.09,0.53h-0.69c0.02-0.55-0.45-0.59-0.7-0.59c-0.1,0-0.73,0-0.73,0.52c0,0.33,0.32,0.41,0.51,0.46
		c1,0.24,1.22,0.3,1.43,0.5c0.2,0.19,0.27,0.44,0.27,0.67c0,0.4-0.22,0.75-0.49,0.92c-0.32,0.19-0.7,0.24-1.07,0.24
		c-0.73,0-1.42-0.3-1.41-1.17H144.96z"/>
	<path class="st0" d="M147.62,17.71h0.64v-0.76l0.67-0.22v0.97h0.81v0.5h-0.81v2.17c0,0.18,0,0.48,0.48,0.48
		c0.14,0,0.27-0.02,0.32-0.04v0.53c-0.12,0.02-0.32,0.04-0.56,0.04c-0.62,0-0.91-0.18-0.91-0.77v-2.41h-0.64V17.71z"/>
	<path class="st0" d="M150.51,16.16h0.81v0.74h-0.81V16.16z M150.58,17.73h0.68v3.61h-0.68V17.73z"/>
	<path class="st0" d="M152.02,17.71h0.64v-0.76l0.67-0.22v0.97h0.81v0.5h-0.81v2.17c0,0.18,0,0.48,0.48,0.48
		c0.14,0,0.27-0.02,0.32-0.04v0.53c-0.12,0.02-0.32,0.04-0.56,0.04c-0.62,0-0.91-0.18-0.91-0.77v-2.41h-0.64V17.71z"/>
	<path class="st0" d="M155.59,17.73v2.33c0,0.35,0.08,0.8,0.77,0.8c0.34,0,0.66-0.11,0.85-0.4c0.15-0.22,0.15-0.5,0.15-0.68v-2.04
		h0.7v2.94c0,0.07,0.01,0.47,0.02,0.68h-0.71l-0.01-0.62c-0.13,0.25-0.37,0.66-1.15,0.66c-0.89,0-1.31-0.51-1.31-1.22v-2.43H155.59z
		"/>
	<path class="st0" d="M158.82,17.71h0.64v-0.76l0.67-0.22v0.97h0.81v0.5h-0.81v2.17c0,0.18,0,0.48,0.48,0.48
		c0.14,0,0.27-0.02,0.32-0.04v0.53c-0.12,0.02-0.32,0.04-0.56,0.04c-0.62,0-0.91-0.18-0.91-0.77v-2.41h-0.64V17.71z"/>
	<path class="st0" d="M162.18,19.66c-0.01,0.75,0.3,1.3,1.04,1.3c0.44,0,0.79-0.23,0.85-0.75h0.68c-0.02,0.18-0.05,0.47-0.31,0.76
		c-0.16,0.18-0.52,0.48-1.25,0.48c-1.14,0-1.68-0.71-1.68-1.85c0-0.71,0.14-1.3,0.71-1.7c0.35-0.25,0.78-0.27,0.99-0.27
		c1.62,0,1.58,1.43,1.57,2.02H162.18z M164.09,19.18c0.01-0.35-0.06-1.07-0.89-1.07c-0.44,0-0.97,0.27-0.99,1.07H164.09z"/>
</g>
</svg>
