<?xml version="1.0" encoding="UTF-8"?>
<svg width="225px" height="28px" viewBox="0 0 225 28" version="1.1" xmlns="http://www.w3.org/2000/svg" xmlns:xlink="http://www.w3.org/1999/xlink">
    <!-- Generator: Sketch 63.1 (92452) - https://sketch.com -->
    <title>fhnw-logo</title>
    <desc>Created with Sketch.</desc>
    <g id="fhnw-logo" stroke="none" stroke-width="1" fill="none" fill-rule="evenodd">
        <g id="fhnwlogo" fill="#000000" fill-rule="nonzero">
            <rect id="Rectangle" x="18.9" y="0.29" width="1" height="26.86"></rect>
            <path d="M5.09,9.22 C5.52,8.6 6.52,6.68 9.44,6.68 C11.5,6.68 12.59,7.5 13.03,7.91 C14.29,9.14 14.36,10.91 14.36,11.91 L14.36,20.43 L9.08,20.43 L9.08,12.94 C9.08,12.79 9.06,11.04 7.29,11.04 C5.42,11.04 5.37,12.76 5.37,13.22 L5.37,20.43 L0.09,20.43 L0.09,7.01 L5.09,7.01 L5.09,9.22" id="Path"></path>
            <path d="M43.24,6.71 C42.25,6.71 41.45,7.51 41.45,8.5 C41.45,9.49 42.25,10.29 43.24,10.29 C44.15,10.29 44.55,9.64 44.56,9.67 C45.07,11.23 42.35,19.35 38.64,19.35 C37.44,19.35 37.06,18.38 37.06,17.12 C37.06,15.63 37.49,14.11 38.04,12.05 C38.61,10.02 39.13,8.07 39.42,7.02 L35.84,7.02 C35.35,8.78 31.85,19.1 28.88,19.1 C28.51,19.1 28.11,18.7 28.11,17.98 C28.11,17.58 28.45,16.17 28.63,15.66 L29.8,11.65 C30.06,10.82 30.43,9.73 30.43,8.93 C30.43,7.53 29.46,6.72 28.31,6.72 C25.07,6.72 23.73,9.61 23.06,10.79 L23.61,11.14 C23.92,10.62 25.36,8.19 26.33,8.19 C26.47,8.19 26.59,8.36 26.59,8.88 C26.59,9.22 26.39,10 26.19,10.71 L24.96,14.78 C24.76,15.53 24.27,16.96 24.27,17.99 C24.27,19.88 25.7,20.83 26.96,20.83 C31.55,20.83 33.55,15.27 34.21,13.67 L34.27,13.73 C34.18,14.04 33.78,15.74 33.78,16.6 C33.78,19.06 34.88,20.84 37.29,20.84 C44.25,20.81 48.06,6.71 43.24,6.71" id="Path"></path>
            <g id="Group" transform="translate(58.000000, 6.000000)">
                <polygon id="Path" points="2.21 6.19 2.21 1.61 0.47 1.61 0.47 0.99 4.67 0.99 4.67 1.6 2.93 1.6 2.93 6.19"></polygon>
                <path d="M5.35,1 L6.03,1 L6.03,3.11 C6.25,2.73 6.7,2.51 7.2,2.51 C7.58,2.51 8.13,2.65 8.34,3.09 C8.41,3.23 8.46,3.41 8.46,3.93 L8.46,6.19 L7.77,6.19 L7.77,4.05 C7.77,3.73 7.77,3.03 6.99,3.03 C6.49,3.03 6.23,3.34 6.14,3.51 C6.02,3.71 6.02,4.05 6.02,4.27 L6.02,6.19 L5.34,6.19 L5.34,1 L5.35,1 Z" id="Path"></path>
                <path d="M10.16,4.51 C10.15,5.26 10.46,5.81 11.2,5.81 C11.64,5.81 11.99,5.58 12.05,5.06 L12.73,5.06 C12.71,5.24 12.68,5.54 12.42,5.82 C12.26,6 11.9,6.3 11.17,6.3 C10.03,6.3 9.49,5.59 9.49,4.45 C9.49,3.74 9.63,3.15 10.2,2.75 C10.55,2.51 10.98,2.48 11.19,2.48 C12.81,2.48 12.77,3.91 12.76,4.5 L10.16,4.5 L10.16,4.51 Z M12.07,4.03 C12.08,3.68 12.01,2.96 11.18,2.96 C10.74,2.96 10.21,3.23 10.19,4.03 L12.07,4.03 Z" id="Shape"></path>
                <path d="M15.8,0.99 L17.66,0.99 C18.29,0.99 18.65,1.05 18.97,1.37 C19.19,1.59 19.34,1.89 19.34,2.3 C19.34,3.16 18.71,3.38 18.46,3.47 C18.76,3.56 19.5,3.77 19.5,4.77 C19.5,5.48 19.05,5.84 18.87,5.95 C18.51,6.19 18.11,6.19 17.7,6.19 L15.8,6.19 L15.8,0.99 Z M16.5,3.19 L17.51,3.19 C17.75,3.19 18.59,3.19 18.59,2.37 C18.59,1.59 17.93,1.59 17.54,1.59 L16.5,1.59 L16.5,3.19 Z M16.5,5.61 L17.73,5.61 C18.3,5.61 18.75,5.31 18.75,4.71 C18.75,4.19 18.39,3.81 17.76,3.81 L16.5,3.81 L16.5,5.61 Z" id="Shape"></path>
                <path d="M22.76,6.19 C22.71,6.01 22.7,5.84 22.7,5.65 C22.38,6.25 21.89,6.31 21.58,6.31 C20.75,6.31 20.31,5.84 20.31,5.24 C20.31,4.95 20.41,4.49 20.94,4.18 C21.33,3.96 21.91,3.94 22.19,3.94 C22.36,3.94 22.47,3.95 22.68,3.96 C22.68,3.51 22.68,3.32 22.55,3.16 C22.41,2.98 22.12,2.92 21.92,2.92 C21.24,2.92 21.2,3.39 21.19,3.53 L20.51,3.53 C20.53,3.34 20.55,3.09 20.76,2.85 C21.03,2.55 21.55,2.46 21.93,2.46 C22.46,2.46 23.02,2.63 23.21,2.99 C23.33,3.21 23.33,3.38 23.33,3.54 L23.3,5.27 C23.3,5.33 23.31,5.81 23.36,6.18 L22.76,6.18 L22.76,6.19 Z M22.29,4.41 C22.02,4.41 20.99,4.41 20.99,5.14 C20.99,5.37 21.13,5.77 21.74,5.77 C22.09,5.77 22.34,5.63 22.51,5.38 C22.66,5.14 22.67,4.93 22.68,4.43 C22.56,4.42 22.46,4.41 22.29,4.41 Z" id="Shape"></path>
                <path d="M24.95,5.12 C24.94,5.39 25.09,5.78 25.74,5.78 C26.02,5.78 26.23,5.73 26.37,5.55 C26.44,5.46 26.49,5.33 26.49,5.21 C26.49,4.86 26.24,4.79 25.7,4.67 C24.94,4.5 24.31,4.35 24.31,3.59 C24.31,2.93 24.89,2.5 25.72,2.5 C26.17,2.5 26.81,2.63 27.02,3.06 C27.11,3.26 27.11,3.43 27.11,3.59 L26.42,3.59 C26.44,3.04 25.97,3 25.72,3 C25.62,3 24.99,3 24.99,3.52 C24.99,3.85 25.31,3.93 25.5,3.98 C26.5,4.22 26.72,4.28 26.93,4.48 C27.13,4.67 27.2,4.92 27.2,5.15 C27.2,5.55 26.98,5.9 26.71,6.06 C26.39,6.25 26.01,6.3 25.64,6.3 C24.91,6.3 24.22,6 24.23,5.13 L24.95,5.13 L24.95,5.12 Z" id="Path"></path>
                <path d="M28.57,4.51 C28.56,5.26 28.87,5.81 29.61,5.81 C30.05,5.81 30.4,5.58 30.46,5.06 L31.14,5.06 C31.12,5.24 31.09,5.54 30.83,5.82 C30.67,6 30.31,6.3 29.58,6.3 C28.44,6.3 27.9,5.59 27.9,4.45 C27.9,3.74 28.04,3.15 28.61,2.75 C28.96,2.51 29.39,2.48 29.6,2.48 C31.22,2.48 31.18,3.91 31.17,4.5 L28.57,4.5 L28.57,4.51 Z M30.48,4.03 C30.49,3.68 30.42,2.96 29.59,2.96 C29.15,2.96 28.62,3.23 28.6,4.03 L30.48,4.03 Z" id="Shape"></path>
                <polygon id="Path" points="32.18 1 32.86 1 32.86 6.19 32.18 6.19"></polygon>
                <path d="M36.69,4.67 C36.7,5.03 36.75,5.7 37.94,5.7 C39.02,5.7 39.16,5.03 39.16,4.77 C39.16,4.19 38.69,4.07 37.96,3.89 C37.17,3.7 36.81,3.61 36.55,3.43 C36.13,3.14 36.01,2.75 36.01,2.41 C36.01,1.35 37.01,0.89 37.99,0.89 C38.34,0.89 39.03,0.95 39.45,1.4 C39.74,1.72 39.75,2.07 39.77,2.29 L39.02,2.29 C38.98,1.64 38.44,1.5 37.93,1.5 C37.21,1.5 36.78,1.82 36.78,2.34 C36.78,2.8 37.08,2.96 37.72,3.11 C38.96,3.43 39.1,3.46 39.4,3.66 C39.88,3.98 39.92,4.48 39.92,4.7 C39.92,5.62 39.2,6.32 37.87,6.32 C37.47,6.32 36.67,6.26 36.26,5.73 C35.96,5.35 35.96,4.93 35.96,4.68 L36.69,4.68 L36.69,4.67 Z" id="Path"></path>
                <path d="M43.03,3.74 C43.02,3.57 42.97,2.98 42.31,2.98 C41.37,2.98 41.37,4.07 41.37,4.34 C41.37,5.08 41.55,5.77 42.27,5.77 C42.85,5.77 43.04,5.34 43.06,4.99 L43.74,4.99 C43.7,5.7 43.17,6.29 42.28,6.29 C42.04,6.29 41.47,6.24 41.09,5.82 C40.87,5.57 40.66,5.19 40.66,4.44 C40.66,2.93 41.58,2.49 42.3,2.49 C42.54,2.49 43.08,2.54 43.41,2.94 C43.68,3.25 43.7,3.54 43.71,3.75 L43.03,3.75 L43.03,3.74 Z" id="Path"></path>
                <path d="M44.57,1 L45.25,1 L45.25,3.11 C45.47,2.73 45.92,2.51 46.42,2.51 C46.8,2.51 47.35,2.65 47.56,3.09 C47.63,3.23 47.68,3.41 47.68,3.93 L47.68,6.19 L47,6.19 L47,4.05 C47,3.73 47,3.03 46.22,3.03 C45.72,3.03 45.46,3.34 45.37,3.51 C45.25,3.71 45.25,4.05 45.25,4.27 L45.25,6.19 L44.57,6.19 L44.57,1 Z" id="Path"></path>
                <path d="M50.54,2.48 C51.99,2.48 52.31,3.62 52.31,4.37 C52.31,5.43 51.71,6.31 50.48,6.31 C49.28,6.31 48.7,5.48 48.7,4.42 C48.71,3.53 49.13,2.48 50.54,2.48 Z M50.5,5.81 C51.01,5.81 51.59,5.44 51.59,4.36 C51.59,3.46 51.17,2.98 50.54,2.98 C50.11,2.98 49.41,3.25 49.41,4.38 C49.41,5.13 49.73,5.81 50.5,5.81 Z" id="Shape"></path>
                <path d="M54.94,2.48 C56.39,2.48 56.71,3.62 56.71,4.37 C56.71,5.43 56.11,6.31 54.88,6.31 C53.68,6.31 53.1,5.48 53.1,4.42 C53.11,3.53 53.53,2.48 54.94,2.48 Z M54.9,5.81 C55.41,5.81 55.99,5.44 55.99,4.36 C55.99,3.46 55.57,2.98 54.94,2.98 C54.51,2.98 53.81,3.25 53.81,4.38 C53.81,5.13 54.13,5.81 54.9,5.81 Z" id="Shape"></path>
                <polygon id="Path" points="57.79 1 58.47 1 58.47 6.19 57.79 6.19"></polygon>
                <path d="M63.35,2.48 C64.8,2.48 65.12,3.62 65.12,4.37 C65.12,5.43 64.52,6.31 63.29,6.31 C62.09,6.31 61.51,5.48 61.51,4.42 C61.51,3.53 61.93,2.48 63.35,2.48 Z M63.31,5.81 C63.82,5.81 64.4,5.44 64.4,4.36 C64.4,3.46 63.98,2.98 63.35,2.98 C62.92,2.98 62.22,3.25 62.22,4.38 C62.22,5.13 62.54,5.81 63.31,5.81 Z" id="Shape"></path>
                <path d="M67.99,1.5 C67.87,1.49 67.73,1.49 67.59,1.49 C67.04,1.49 67.04,1.76 67.04,2.02 L67.04,2.59 L67.88,2.59 L67.88,3.08 L67.04,3.08 L67.04,6.2 L66.37,6.2 L66.37,3.08 L65.66,3.08 L65.66,2.58 L66.37,2.58 L66.37,2.17 C66.37,1.67 66.4,1.49 66.52,1.31 C66.67,1.08 66.96,0.91 67.43,0.91 C67.62,0.91 67.84,0.94 67.98,0.96 L67.98,1.5 L67.99,1.5 Z" id="Path"></path>
                <path d="M72.2,0.99 L72.97,0.99 L75.07,6.19 L74.28,6.19 L73.72,4.84 L71.31,4.84 L70.75,6.19 L70.01,6.19 L72.2,0.99 Z M71.54,4.25 L73.51,4.25 L72.55,1.7 L71.54,4.25 Z" id="Shape"></path>
                <path d="M75.81,3.31 C75.81,3.07 75.8,2.81 75.77,2.58 L76.45,2.58 L76.46,3.28 C76.59,2.78 77.02,2.61 77.32,2.57 C77.52,2.54 77.67,2.55 77.79,2.56 L77.79,3.22 C77.75,3.21 77.71,3.2 77.66,3.19 C77.61,3.18 77.54,3.18 77.47,3.18 C76.67,3.18 76.48,3.66 76.48,4.27 L76.48,6.19 L75.8,6.19 L75.8,3.31 L75.81,3.31 Z" id="Path"></path>
                <path d="M78.03,2.56 L78.67,2.56 L78.67,1.81 L79.34,1.59 L79.34,2.56 L80.15,2.56 L80.15,3.06 L79.34,3.06 L79.34,5.23 C79.34,5.41 79.34,5.71 79.82,5.71 C79.96,5.71 80.09,5.69 80.14,5.67 L80.14,6.2 C80.02,6.22 79.82,6.24 79.58,6.24 C78.96,6.24 78.67,6.06 78.67,5.47 L78.67,3.06 L78.03,3.06 L78.03,2.56 L78.03,2.56 Z" id="Path"></path>
                <path d="M85.18,6.19 C85.13,6.01 85.12,5.84 85.12,5.65 C84.8,6.25 84.31,6.31 84,6.31 C83.17,6.31 82.73,5.84 82.73,5.24 C82.73,4.95 82.83,4.49 83.36,4.18 C83.75,3.96 84.33,3.94 84.61,3.94 C84.78,3.94 84.89,3.95 85.1,3.96 C85.1,3.51 85.1,3.32 84.97,3.16 C84.83,2.98 84.54,2.92 84.34,2.92 C83.66,2.92 83.62,3.39 83.61,3.53 L82.93,3.53 C82.95,3.34 82.97,3.09 83.18,2.85 C83.45,2.55 83.97,2.46 84.35,2.46 C84.88,2.46 85.44,2.63 85.63,2.99 C85.75,3.21 85.75,3.38 85.75,3.54 L85.72,5.27 C85.72,5.33 85.73,5.81 85.78,6.18 L85.18,6.18 L85.18,6.19 Z M84.72,4.41 C84.45,4.41 83.42,4.41 83.42,5.14 C83.42,5.37 83.56,5.77 84.17,5.77 C84.52,5.77 84.77,5.63 84.94,5.38 C85.09,5.14 85.1,4.93 85.11,4.43 C84.98,4.42 84.88,4.41 84.72,4.41 Z" id="Shape"></path>
                <path d="M87.01,2.99 L87,2.58 L87.68,2.58 L87.69,3.16 C87.77,3.01 88.03,2.5 88.85,2.5 C89.17,2.5 90.16,2.62 90.16,3.73 L90.16,6.19 L89.47,6.19 L89.47,3.89 C89.47,3.65 89.44,3.44 89.27,3.27 C89.1,3.1 88.86,3.03 88.63,3.03 C88.14,3.03 87.69,3.38 87.69,4.11 L87.69,6.19 L87.01,6.19 L87.01,2.99 L87.01,2.99 Z" id="Path"></path>
                <path d="M93.89,1 L94.57,1 L94.57,5.62 C94.57,5.7 94.58,6.01 94.6,6.2 L93.92,6.2 L93.91,5.62 C93.85,5.72 93.77,5.87 93.59,6 C93.29,6.2 92.94,6.27 92.7,6.27 C92.22,6.27 91.14,6.02 91.14,4.43 C91.14,3.05 91.93,2.46 92.78,2.46 C93.56,2.46 93.82,2.92 93.9,3.07 L93.9,1 L93.89,1 Z M93.64,3.33 C93.5,3.14 93.23,2.96 92.85,2.96 C91.86,2.96 91.86,4.16 91.86,4.41 C91.86,5.05 92.02,5.79 92.85,5.79 C93.92,5.79 93.92,4.62 93.92,4.34 C93.91,3.81 93.79,3.52 93.64,3.33 Z" id="Shape"></path>
                <path d="M97.79,0.99 L99.29,0.99 C99.99,0.99 100.81,0.99 101.38,1.67 C101.84,2.21 102.02,2.92 102.02,3.64 C102.02,4.76 101.55,5.45 101.16,5.77 C100.65,6.19 100.01,6.19 99.24,6.19 L97.78,6.19 L97.78,0.99 L97.79,0.99 Z M98.51,5.6 L99.22,5.6 C99.72,5.6 100.24,5.57 100.58,5.31 C101.24,4.81 101.26,3.96 101.26,3.66 C101.26,3.47 101.25,2.58 100.76,2.04 C100.43,1.67 100.01,1.59 99.38,1.59 L98.52,1.59 L98.52,5.6 L98.51,5.6 Z" id="Shape"></path>
                <path d="M103.4,4.51 C103.39,5.26 103.7,5.81 104.44,5.81 C104.88,5.81 105.23,5.58 105.29,5.06 L105.97,5.06 C105.95,5.24 105.92,5.54 105.66,5.82 C105.5,6 105.14,6.3 104.41,6.3 C103.27,6.3 102.73,5.59 102.73,4.45 C102.73,3.74 102.87,3.15 103.44,2.75 C103.79,2.51 104.22,2.48 104.43,2.48 C106.05,2.48 106.01,3.91 106,4.5 L103.4,4.5 L103.4,4.51 Z M105.31,4.03 C105.32,3.68 105.25,2.96 104.42,2.96 C103.98,2.96 103.45,3.23 103.43,4.03 L105.31,4.03 Z" id="Shape"></path>
                <path d="M107.38,5.12 C107.37,5.39 107.52,5.78 108.17,5.78 C108.45,5.78 108.66,5.73 108.8,5.55 C108.87,5.46 108.91,5.33 108.91,5.21 C108.91,4.86 108.66,4.79 108.12,4.67 C107.36,4.5 106.73,4.35 106.73,3.59 C106.73,2.93 107.31,2.5 108.14,2.5 C108.59,2.5 109.23,2.63 109.44,3.06 C109.53,3.26 109.53,3.43 109.53,3.59 L108.84,3.59 C108.86,3.04 108.39,3 108.14,3 C108.04,3 107.41,3 107.41,3.52 C107.41,3.85 107.73,3.93 107.92,3.98 C108.92,4.22 109.14,4.28 109.35,4.48 C109.55,4.67 109.62,4.92 109.62,5.15 C109.62,5.55 109.4,5.9 109.13,6.06 C108.81,6.25 108.43,6.3 108.06,6.3 C107.33,6.3 106.64,6 106.65,5.13 L107.38,5.13 L107.38,5.12 Z" id="Path"></path>
                <path d="M110.53,1.01 L111.34,1.01 L111.34,1.75 L110.53,1.75 L110.53,1.01 Z M110.6,2.58 L111.28,2.58 L111.28,6.19 L110.6,6.19 L110.6,2.58 Z" id="Shape"></path>
                <path d="M113.24,6.47 C113.27,6.87 113.44,7.18 114.08,7.18 C115.02,7.18 115.04,6.5 115.04,5.52 C114.75,6.12 114.07,6.13 113.85,6.13 C113.52,6.13 113.04,6.06 112.74,5.68 C112.43,5.31 112.33,4.83 112.33,4.35 C112.33,3.13 113.05,2.53 113.94,2.53 C114.67,2.53 114.93,2.89 115.08,3.08 L115.09,2.58 L115.75,2.58 L115.74,3.24 L115.73,5.5 C115.73,6.37 115.7,6.72 115.56,7 C115.26,7.58 114.55,7.65 114.06,7.65 C112.61,7.65 112.57,6.97 112.54,6.48 L113.24,6.48 L113.24,6.47 Z M114.82,5.26 C114.96,5.07 115.07,4.88 115.07,4.22 C115.07,3.77 114.97,3.51 114.79,3.32 C114.61,3.13 114.32,3 114.01,3 C113.15,3 113.04,3.86 113.04,4.33 C113.04,4.88 113.21,5.62 114.03,5.62 C114.42,5.62 114.65,5.48 114.82,5.26 Z" id="Shape"></path>
                <path d="M117.01,2.99 L117,2.57 L117.68,2.57 L117.69,3.15 C117.77,3 118.03,2.49 118.85,2.49 C119.17,2.49 120.16,2.61 120.16,3.72 L120.16,6.18 L119.47,6.18 L119.47,3.88 C119.47,3.64 119.44,3.43 119.28,3.26 C119.11,3.09 118.87,3.02 118.64,3.02 C118.15,3.02 117.7,3.37 117.7,4.1 L117.7,6.18 L117.02,6.18 L117.02,2.99 L117.01,2.99 Z" id="Path"></path>
                <polygon id="Path" points="123.4 0.53 124 0.53 124 7.73 123.4 7.73"></polygon>
                <polygon id="Path" points="127.32 0.99 130.42 0.99 130.42 1.6 128.06 1.6 128.06 3.22 130.28 3.22 130.28 3.82 128.06 3.82 128.06 6.18 127.33 6.18 127.33 0.99"></polygon>
                <polygon id="Path" points="131.99 0.99 131.99 3.22 134.46 3.22 134.46 0.99 135.18 0.99 135.18 6.19 134.46 6.19 134.46 3.84 131.99 3.84 131.99 6.19 131.27 6.19 131.27 0.99"></polygon>
                <polygon id="Path" points="136.52 0.99 137.52 0.99 140.08 5.29 140.08 0.99 140.74 0.99 140.74 6.19 139.82 6.19 137.18 1.78 137.18 6.19 136.52 6.19 136.52 0.99"></polygon>
                <polygon id="Path" points="142.27 0.99 143.39 5.27 144.63 0.99 145.52 0.99 146.69 5.3 147.87 0.99 148.58 0.99 147.04 6.19 146.24 6.19 145.04 1.75 143.75 6.19 142.97 6.19 141.49 0.99"></polygon>
                <polygon id="Path" points="152 0.99 152 3.22 154.47 3.22 154.47 0.99 155.19 0.99 155.19 6.19 154.47 6.19 154.47 3.84 152 3.84 152 6.19 151.28 6.19 151.28 0.99"></polygon>
                <path d="M160,2.29 C159.92,1.81 159.53,1.48 158.83,1.48 C158.34,1.48 157.93,1.61 157.66,1.92 C157.21,2.42 157.1,3.1 157.1,3.59 C157.1,4.03 157.19,4.77 157.58,5.22 C157.92,5.61 158.44,5.73 158.96,5.73 C159.55,5.73 159.92,5.61 160.09,5.56 L160.09,4.02 L158.9,4.02 L158.9,3.42 L160.81,3.42 L160.81,5.98 C160.51,6.08 159.85,6.3 158.96,6.3 C158,6.3 157.44,6.03 157.07,5.65 C156.56,5.13 156.34,4.4 156.34,3.67 C156.34,3.15 156.47,1.93 157.46,1.26 C157.97,0.91 158.65,0.89 158.91,0.89 C159.32,0.89 159.95,0.94 160.44,1.44 C160.75,1.76 160.77,2.07 160.79,2.27 L160,2.27 L160,2.29 Z" id="Path"></path>
                <polygon id="Path" points="162.12 0.99 162.83 0.99 162.83 3.27 165 0.99 165.99 0.99 163.66 3.32 166.24 6.19 165.23 6.19 162.83 3.43 162.83 6.19 162.12 6.19"></polygon>
                <polygon id="Path" points="3.06 14.34 2.27 14.34 0.42 9.14 1.22 9.14 2.7 13.58 4.26 9.14 4.99 9.14"></polygon>
                <path d="M5.69,9.16 L6.5,9.16 L6.5,9.9 L5.69,9.9 L5.69,9.16 Z M5.76,10.73 L6.44,10.73 L6.44,14.34 L5.76,14.34 L5.76,10.73 Z" id="Shape"></path>
                <path d="M8.14,13.27 C8.13,13.54 8.28,13.93 8.93,13.93 C9.21,13.93 9.42,13.88 9.56,13.7 C9.63,13.61 9.68,13.48 9.68,13.36 C9.68,13.01 9.43,12.94 8.89,12.82 C8.13,12.65 7.5,12.5 7.5,11.74 C7.5,11.08 8.08,10.65 8.91,10.65 C9.36,10.65 10,10.78 10.21,11.21 C10.3,11.41 10.3,11.58 10.3,11.74 L9.61,11.74 C9.63,11.19 9.16,11.15 8.91,11.15 C8.81,11.15 8.18,11.15 8.18,11.67 C8.18,12 8.5,12.08 8.69,12.13 C9.69,12.37 9.91,12.43 10.12,12.63 C10.32,12.82 10.39,13.07 10.39,13.3 C10.39,13.7 10.17,14.05 9.9,14.22 C9.58,14.41 9.2,14.46 8.83,14.46 C8.1,14.46 7.41,14.16 7.42,13.29 L8.14,13.29 L8.14,13.27 Z" id="Path"></path>
                <path d="M11.97,10.73 L11.97,13.06 C11.97,13.41 12.05,13.86 12.74,13.86 C13.08,13.86 13.4,13.75 13.59,13.46 C13.74,13.24 13.74,12.96 13.74,12.78 L13.74,10.74 L14.44,10.74 L14.44,13.68 C14.44,13.75 14.45,14.15 14.46,14.36 L13.75,14.36 L13.74,13.74 C13.61,13.99 13.37,14.4 12.59,14.4 C11.7,14.4 11.28,13.89 11.28,13.18 L11.28,10.75 L11.97,10.75 L11.97,10.73 Z" id="Path"></path>
                <path d="M17.96,14.34 C17.91,14.16 17.9,13.99 17.9,13.8 C17.58,14.4 17.09,14.46 16.78,14.46 C15.95,14.46 15.51,13.99 15.51,13.39 C15.51,13.1 15.61,12.64 16.14,12.33 C16.53,12.11 17.11,12.09 17.39,12.09 C17.56,12.09 17.67,12.1 17.88,12.11 C17.88,11.66 17.88,11.47 17.75,11.31 C17.61,11.13 17.32,11.07 17.12,11.07 C16.44,11.07 16.4,11.54 16.39,11.68 L15.71,11.68 C15.73,11.49 15.75,11.24 15.96,11 C16.23,10.7 16.75,10.61 17.13,10.61 C17.66,10.61 18.22,10.78 18.41,11.14 C18.53,11.36 18.53,11.53 18.53,11.69 L18.5,13.42 C18.5,13.48 18.51,13.96 18.56,14.33 L17.96,14.33 L17.96,14.34 Z M17.49,12.56 C17.22,12.56 16.19,12.56 16.19,13.29 C16.19,13.52 16.33,13.92 16.94,13.92 C17.29,13.92 17.54,13.78 17.71,13.53 C17.86,13.28 17.87,13.08 17.88,12.58 C17.76,12.57 17.66,12.56 17.49,12.56 Z" id="Shape"></path>
                <polygon id="Path" points="19.77 9.15 20.45 9.15 20.45 14.34 19.77 14.34"></polygon>
                <path d="M26.89,10.55 C26.86,10.37 26.77,9.65 25.77,9.65 C24.52,9.65 24.29,10.93 24.29,11.8 C24.29,12.78 24.57,13.84 25.76,13.84 C26.08,13.84 26.38,13.76 26.6,13.53 C26.79,13.33 26.83,13.11 26.85,12.98 L27.64,12.98 C27.53,14 26.59,14.43 25.7,14.43 C23.87,14.43 23.52,12.82 23.52,11.81 C23.52,10.72 23.94,9.08 25.8,9.08 C26.53,9.08 27.57,9.38 27.66,10.56 L26.89,10.56 L26.89,10.55 Z" id="Path"></path>
                <path d="M30.14,10.63 C31.59,10.63 31.91,11.77 31.91,12.52 C31.91,13.58 31.31,14.46 30.08,14.46 C28.88,14.46 28.3,13.63 28.3,12.57 C28.3,11.68 28.72,10.63 30.14,10.63 Z M30.09,13.96 C30.6,13.96 31.18,13.59 31.18,12.51 C31.18,11.61 30.76,11.13 30.13,11.13 C29.7,11.13 29,11.4 29,12.53 C29.01,13.28 29.32,13.96 30.09,13.96 Z" id="Shape"></path>
                <path d="M32.97,11.21 L32.96,10.73 L33.64,10.73 L33.64,11.26 C33.99,10.69 34.48,10.64 34.79,10.64 C35.59,10.64 35.84,11.05 35.97,11.32 C36.09,11.12 36.39,10.64 37.19,10.64 C37.71,10.64 38.51,10.86 38.51,11.92 L38.51,14.35 L37.83,14.35 L37.83,12.03 C37.83,11.71 37.77,11.58 37.71,11.48 C37.59,11.31 37.36,11.16 37.02,11.16 C36.58,11.16 36.34,11.41 36.25,11.54 C36.09,11.76 36.09,12.16 36.09,12.32 L36.09,14.34 L35.41,14.34 L35.41,11.95 C35.41,11.5 35.15,11.16 34.62,11.16 C34.16,11.16 33.91,11.45 33.83,11.56 C33.68,11.77 33.67,12.06 33.67,12.29 L33.67,14.34 L32.99,14.34 L32.99,11.21 L32.97,11.21 Z" id="Path"></path>
                <path d="M39.76,11.21 L39.75,10.73 L40.43,10.73 L40.43,11.26 C40.78,10.69 41.27,10.64 41.58,10.64 C42.38,10.64 42.63,11.05 42.76,11.32 C42.88,11.12 43.18,10.64 43.98,10.64 C44.5,10.64 45.31,10.86 45.31,11.92 L45.31,14.35 L44.63,14.35 L44.63,12.03 C44.63,11.71 44.57,11.58 44.51,11.48 C44.4,11.31 44.16,11.16 43.82,11.16 C43.38,11.16 43.14,11.41 43.05,11.54 C42.89,11.76 42.89,12.16 42.89,12.32 L42.89,14.34 L42.21,14.34 L42.21,11.95 C42.21,11.5 41.95,11.16 41.42,11.16 C40.96,11.16 40.71,11.45 40.63,11.56 C40.48,11.77 40.47,12.06 40.47,12.29 L40.47,14.34 L39.79,14.34 L39.79,11.21 L39.76,11.21 Z" id="Path"></path>
                <path d="M47.18,10.73 L47.18,13.06 C47.18,13.41 47.26,13.86 47.95,13.86 C48.29,13.86 48.61,13.75 48.8,13.46 C48.95,13.24 48.95,12.96 48.95,12.78 L48.95,10.74 L49.65,10.74 L49.65,13.68 C49.65,13.75 49.66,14.15 49.67,14.36 L48.96,14.36 L48.95,13.74 C48.82,13.99 48.58,14.4 47.8,14.4 C46.91,14.4 46.49,13.89 46.49,13.18 L46.49,10.75 L47.18,10.75 L47.18,10.73 Z" id="Path"></path>
                <path d="M50.98,11.14 L50.97,10.72 L51.65,10.72 L51.66,11.3 C51.74,11.15 52,10.64 52.82,10.64 C53.14,10.64 54.13,10.76 54.13,11.87 L54.13,14.32 L53.44,14.32 L53.44,12.02 C53.44,11.78 53.41,11.57 53.25,11.4 C53.08,11.23 52.84,11.15 52.61,11.15 C52.12,11.15 51.67,11.5 51.67,12.23 L51.67,14.31 L50.99,14.31 L50.99,11.14 L50.98,11.14 Z" id="Path"></path>
                <path d="M55.3,9.16 L56.11,9.16 L56.11,9.9 L55.3,9.9 L55.3,9.16 Z M55.37,10.73 L56.05,10.73 L56.05,14.34 L55.37,14.34 L55.37,10.73 Z" id="Shape"></path>
                <path d="M59.42,11.89 C59.41,11.72 59.36,11.13 58.7,11.13 C57.76,11.13 57.76,12.22 57.76,12.49 C57.76,13.23 57.94,13.92 58.66,13.92 C59.24,13.92 59.43,13.49 59.45,13.14 L60.13,13.14 C60.09,13.85 59.56,14.44 58.67,14.44 C58.43,14.44 57.86,14.39 57.48,13.97 C57.26,13.72 57.05,13.34 57.05,12.59 C57.05,11.09 57.97,10.64 58.69,10.64 C58.93,10.64 59.47,10.69 59.8,11.09 C60.07,11.4 60.09,11.7 60.1,11.9 L59.42,11.9 L59.42,11.89 Z" id="Path"></path>
                <path d="M63.17,14.34 C63.12,14.16 63.11,13.99 63.11,13.8 C62.79,14.4 62.3,14.46 61.99,14.46 C61.16,14.46 60.72,13.99 60.72,13.39 C60.72,13.1 60.82,12.64 61.35,12.33 C61.74,12.11 62.32,12.09 62.6,12.09 C62.77,12.09 62.88,12.1 63.09,12.11 C63.09,11.66 63.09,11.47 62.96,11.31 C62.82,11.13 62.53,11.07 62.33,11.07 C61.65,11.07 61.61,11.54 61.6,11.68 L60.92,11.68 C60.94,11.49 60.96,11.24 61.17,11 C61.44,10.7 61.96,10.61 62.34,10.61 C62.87,10.61 63.43,10.78 63.62,11.14 C63.74,11.36 63.74,11.53 63.74,11.69 L63.71,13.42 C63.71,13.48 63.72,13.96 63.77,14.33 L63.17,14.33 L63.17,14.34 Z M62.7,12.56 C62.43,12.56 61.4,12.56 61.4,13.29 C61.4,13.52 61.54,13.92 62.15,13.92 C62.5,13.92 62.75,13.78 62.92,13.53 C63.07,13.28 63.08,13.08 63.09,12.58 C62.97,12.57 62.87,12.56 62.7,12.56 Z" id="Shape"></path>
                <path d="M64.41,10.71 L65.05,10.71 L65.05,9.95 L65.72,9.73 L65.72,10.7 L66.53,10.7 L66.53,11.2 L65.72,11.2 L65.72,13.37 C65.72,13.55 65.72,13.85 66.2,13.85 C66.34,13.85 66.47,13.83 66.52,13.81 L66.52,14.34 C66.4,14.36 66.2,14.38 65.96,14.38 C65.34,14.38 65.05,14.2 65.05,13.61 L65.05,11.2 L64.41,11.2 L64.41,10.71 Z" id="Path"></path>
                <path d="M67.3,9.16 L68.11,9.16 L68.11,9.9 L67.3,9.9 L67.3,9.16 Z M67.37,10.73 L68.05,10.73 L68.05,14.34 L67.37,14.34 L67.37,10.73 Z" id="Shape"></path>
                <path d="M70.94,10.63 C72.39,10.63 72.71,11.77 72.71,12.52 C72.71,13.58 72.11,14.46 70.88,14.46 C69.68,14.46 69.1,13.63 69.1,12.57 C69.1,11.68 69.52,10.63 70.94,10.63 Z M70.9,13.96 C71.41,13.96 71.99,13.59 71.99,12.51 C71.99,11.61 71.57,11.13 70.94,11.13 C70.51,11.13 69.81,11.4 69.81,12.53 C69.81,13.28 70.13,13.96 70.9,13.96 Z" id="Shape"></path>
                <path d="M73.79,11.14 L73.78,10.72 L74.46,10.72 L74.47,11.3 C74.55,11.15 74.81,10.64 75.63,10.64 C75.95,10.64 76.94,10.76 76.94,11.87 L76.94,14.32 L76.25,14.32 L76.25,12.02 C76.25,11.78 76.22,11.57 76.06,11.4 C75.89,11.23 75.65,11.15 75.42,11.15 C74.93,11.15 74.48,11.5 74.48,12.23 L74.48,14.31 L73.8,14.31 L73.8,11.14 L73.79,11.14 Z" id="Path"></path>
                <polygon id="Path" points="80.17 9.14 80.89 9.14 80.89 14.34 80.17 14.34"></polygon>
                <path d="M82.2,11.14 L82.19,10.72 L82.87,10.72 L82.88,11.3 C82.96,11.15 83.22,10.64 84.04,10.64 C84.36,10.64 85.35,10.76 85.35,11.87 L85.35,14.32 L84.66,14.32 L84.66,12.02 C84.66,11.78 84.63,11.57 84.47,11.4 C84.3,11.23 84.06,11.15 83.83,11.15 C83.34,11.15 82.89,11.5 82.89,12.23 L82.89,14.31 L82.21,14.31 L82.21,11.14 L82.2,11.14 Z" id="Path"></path>
                <path d="M86.96,13.27 C86.95,13.54 87.1,13.93 87.75,13.93 C88.03,13.93 88.24,13.88 88.38,13.7 C88.45,13.61 88.49,13.48 88.49,13.36 C88.49,13.01 88.24,12.94 87.7,12.82 C86.94,12.65 86.31,12.5 86.31,11.74 C86.31,11.08 86.89,10.65 87.72,10.65 C88.17,10.65 88.81,10.78 89.02,11.21 C89.11,11.41 89.11,11.58 89.11,11.74 L88.42,11.74 C88.44,11.19 87.97,11.15 87.72,11.15 C87.62,11.15 86.99,11.15 86.99,11.67 C86.99,12 87.31,12.08 87.5,12.13 C88.5,12.37 88.72,12.43 88.93,12.63 C89.13,12.82 89.2,13.07 89.2,13.3 C89.2,13.7 88.98,14.05 88.71,14.22 C88.39,14.41 88.01,14.46 87.64,14.46 C86.91,14.46 86.22,14.16 86.23,13.29 L86.96,13.29 L86.96,13.27 Z" id="Path"></path>
                <path d="M89.62,10.71 L90.26,10.71 L90.26,9.95 L90.93,9.73 L90.93,10.7 L91.74,10.7 L91.74,11.2 L90.93,11.2 L90.93,13.37 C90.93,13.55 90.93,13.85 91.41,13.85 C91.55,13.85 91.68,13.83 91.73,13.81 L91.73,14.34 C91.61,14.36 91.41,14.38 91.17,14.38 C90.55,14.38 90.26,14.2 90.26,13.61 L90.26,11.2 L89.62,11.2 L89.62,10.71 L89.62,10.71 Z" id="Path"></path>
                <path d="M92.51,9.16 L93.32,9.16 L93.32,9.9 L92.51,9.9 L92.51,9.16 Z M92.58,10.73 L93.26,10.73 L93.26,14.34 L92.58,14.34 L92.58,10.73 Z" id="Shape"></path>
                <path d="M94.02,10.71 L94.66,10.71 L94.66,9.95 L95.33,9.73 L95.33,10.7 L96.14,10.7 L96.14,11.2 L95.33,11.2 L95.33,13.37 C95.33,13.55 95.33,13.85 95.81,13.85 C95.95,13.85 96.08,13.83 96.13,13.81 L96.13,14.34 C96.01,14.36 95.81,14.38 95.57,14.38 C94.95,14.38 94.66,14.2 94.66,13.61 L94.66,11.2 L94.02,11.2 L94.02,10.71 L94.02,10.71 Z" id="Path"></path>
                <path d="M97.59,10.73 L97.59,13.06 C97.59,13.41 97.67,13.86 98.36,13.86 C98.7,13.86 99.02,13.75 99.21,13.46 C99.36,13.24 99.36,12.96 99.36,12.78 L99.36,10.74 L100.06,10.74 L100.06,13.68 C100.06,13.75 100.07,14.15 100.08,14.36 L99.37,14.36 L99.36,13.74 C99.23,13.99 98.99,14.4 98.21,14.4 C97.32,14.4 96.9,13.89 96.9,13.18 L96.9,10.75 L97.59,10.75 L97.59,10.73 Z" id="Path"></path>
                <path d="M100.82,10.71 L101.46,10.71 L101.46,9.95 L102.13,9.73 L102.13,10.7 L102.94,10.7 L102.94,11.2 L102.13,11.2 L102.13,13.37 C102.13,13.55 102.13,13.85 102.61,13.85 C102.75,13.85 102.88,13.83 102.93,13.81 L102.93,14.34 C102.81,14.36 102.61,14.38 102.37,14.38 C101.75,14.38 101.46,14.2 101.46,13.61 L101.46,11.2 L100.82,11.2 L100.82,10.71 L100.82,10.71 Z" id="Path"></path>
                <path d="M104.18,12.66 C104.17,13.41 104.48,13.96 105.22,13.96 C105.66,13.96 106.01,13.73 106.07,13.21 L106.75,13.21 C106.73,13.39 106.7,13.68 106.44,13.97 C106.28,14.15 105.92,14.45 105.19,14.45 C104.05,14.45 103.51,13.74 103.51,12.6 C103.51,11.89 103.65,11.3 104.22,10.9 C104.57,10.65 105,10.63 105.21,10.63 C106.83,10.63 106.79,12.06 106.78,12.65 L104.18,12.65 L104.18,12.66 Z M106.09,12.18 C106.1,11.83 106.03,11.11 105.2,11.11 C104.76,11.11 104.23,11.38 104.21,12.18 L106.09,12.18 Z" id="Shape"></path>
            </g>
        </g>
    </g>
</svg>